<svg width="48" height="48" viewBox="0 0 48 48" fill="none" xmlns="http://www.w3.org/2000/svg">
<g clip-path="url(#clip0_8_4)">
<g filter="url(#filter0_d_8_4)">
<rect x="3" y="11.902" width="34.3945" height="34.3945" transform="rotate(-15 3 11.902)" fill="#314C2C" fill-opacity="0.75" shape-rendering="crispEdges"/>
</g>
<path d="M37.8281 26.5527H38.5312V35H37.8281V26.5527ZM40.6406 26.5527H41.3438V35H40.6406V26.5527ZM39.2344 26.5527H39.9375V35H39.2344V26.5527ZM37.125 26.5527V35C35.888 35.4688 34.6055 35.7031 33.2773 35.7031C32.125 35.7031 31.0215 35.4915 29.9668 35.0684C28.9121 34.6452 27.9844 34.0592 27.1836 33.3105C26.3828 32.5553 25.7415 31.6243 25.2598 30.5176C24.7845 29.4043 24.5469 28.2031 24.5469 26.9141C24.5469 25.7227 24.778 24.5866 25.2402 23.5059C25.709 22.4186 26.334 21.4844 27.1152 20.7031C27.903 19.9154 28.8372 19.2904 29.918 18.8281C31.0052 18.3594 32.1445 18.125 33.3359 18.125C34.8203 18.125 36.2005 18.4701 37.4766 19.1602C38.7526 19.8503 39.7943 20.7878 40.6016 21.9727L40.0156 22.3535C39.2734 21.2663 38.3132 20.4069 37.1348 19.7754C35.9629 19.1439 34.6966 18.8281 33.3359 18.8281C32.2422 18.8281 31.194 19.043 30.1914 19.4727C29.1953 19.8958 28.3359 20.4688 27.6133 21.1914C26.8906 21.9141 26.3145 22.7767 25.8848 23.7793C25.4616 24.7754 25.25 25.8203 25.25 26.9141C25.25 28.0924 25.4681 29.1927 25.9043 30.2148C26.347 31.237 26.9329 32.0931 27.6621 32.7832C28.3978 33.4733 29.2507 34.0169 30.2207 34.4141C31.1908 34.8047 32.1999 35 33.248 35C34.3483 35 35.4062 34.8275 36.4219 34.4824V33.8086C35.4518 34.1341 34.4329 34.2969 33.3652 34.2969C32.5905 34.2969 31.8353 34.1895 31.0996 33.9746C30.3704 33.7533 29.6934 33.431 29.0684 33.0078C28.4499 32.5781 27.9062 32.0703 27.4375 31.4844C26.9753 30.8919 26.6107 30.2051 26.3438 29.4238C26.0833 28.6361 25.9531 27.7995 25.9531 26.9141C25.9531 25.5794 26.2819 24.3457 26.9395 23.2129C27.6035 22.0801 28.502 21.1849 29.6348 20.5273C30.7676 19.8633 32.0013 19.5312 33.3359 19.5312C34.5859 19.5312 35.748 19.8242 36.8223 20.4102C37.8965 20.9896 38.7721 21.7773 39.4492 22.7734L38.8633 23.1543C38.2513 22.2559 37.457 21.5462 36.4805 21.0254C35.5104 20.498 34.4622 20.2344 33.3359 20.2344C32.431 20.2344 31.5651 20.4102 30.7383 20.7617C29.9115 21.1133 29.1986 21.5885 28.5996 22.1875C28.0072 22.7799 27.5352 23.4896 27.1836 24.3164C26.832 25.1432 26.6562 26.0091 26.6562 26.9141C26.6562 27.7279 26.7734 28.4928 27.0078 29.209C27.2487 29.9186 27.5775 30.5404 27.9941 31.0742C28.4173 31.6016 28.9089 32.0573 29.4688 32.4414C30.0286 32.819 30.6374 33.1055 31.2949 33.3008C31.959 33.4961 32.6393 33.5938 33.3359 33.5938C34.4167 33.5938 35.4453 33.4115 36.4219 33.0469V32.3438C35.4583 32.7148 34.4525 32.9004 33.4043 32.9004C32.61 32.9004 31.8516 32.7669 31.1289 32.5C30.4062 32.2266 29.7617 31.8424 29.1953 31.3477C28.6354 30.8529 28.1895 30.2214 27.8574 29.4531C27.5254 28.6849 27.3594 27.8385 27.3594 26.9141C27.3594 25.8333 27.6263 24.834 28.1602 23.916C28.694 22.998 29.4199 22.2721 30.3379 21.7383C31.2559 21.2044 32.2552 20.9375 33.3359 20.9375C34.3451 20.9375 35.2826 21.1719 36.1484 21.6406C37.0208 22.1094 37.7305 22.7474 38.2773 23.5547L37.6914 23.9355C37.2096 23.2324 36.5846 22.6758 35.8164 22.2656C35.0547 21.849 34.2279 21.6406 33.3359 21.6406C32.3789 21.6406 31.4967 21.8783 30.6895 22.3535C29.8822 22.8223 29.2409 23.4603 28.7656 24.2676C28.2969 25.0749 28.0625 25.957 28.0625 26.9141C28.0625 27.5781 28.1569 28.1966 28.3457 28.7695C28.5345 29.3424 28.7949 29.8372 29.127 30.2539C29.459 30.6706 29.8464 31.0254 30.2891 31.3184C30.7383 31.6113 31.2201 31.8327 31.7344 31.9824C32.2487 32.1257 32.7826 32.1973 33.3359 32.1973C34.4362 32.1973 35.4648 31.9792 36.4219 31.543V30.8691C35.4974 31.2793 34.498 31.4844 33.4238 31.4844C32.8053 31.4844 32.2227 31.39 31.6758 31.2012C31.1289 31.0124 30.6341 30.7357 30.1914 30.3711C29.7552 30.0065 29.4069 29.528 29.1465 28.9355C28.8926 28.3366 28.7656 27.6628 28.7656 26.9141C28.7656 26.2956 28.8861 25.7064 29.127 25.1465C29.3678 24.5801 29.6934 24.0918 30.1035 23.6816C30.5137 23.2715 30.9987 22.946 31.5586 22.7051C32.125 22.4642 32.7174 22.3438 33.3359 22.3438C34.1107 22.3438 34.8301 22.526 35.4941 22.8906C36.1582 23.2487 36.6986 23.737 37.1152 24.3555L36.5391 24.7363C36.1875 24.2155 35.7285 23.8053 35.1621 23.5059C34.6022 23.1999 33.9935 23.0469 33.3359 23.0469C32.2682 23.0469 31.3568 23.4245 30.6016 24.1797C29.8464 24.9349 29.4688 25.8464 29.4688 26.9141C29.4688 27.5716 29.5762 28.1543 29.791 28.6621C30.0059 29.1634 30.2988 29.5671 30.6699 29.873C31.0475 30.1725 31.4642 30.4004 31.9199 30.5566C32.3822 30.7064 32.877 30.7812 33.4043 30.7812C34.485 30.7812 35.4909 30.5566 36.4219 30.1074V26.5527H37.125Z" fill="#B3C5B0"/>
<path d="M14.2969 26.0156L13.625 27.0781L5.48438 14.125H6.8125L14.2969 26.0156ZM19.8438 34.4688L20.5 33.4062L24.6562 40H23.3281L19.8438 34.4688ZM15.625 23.9219L14.9531 24.9688L8.14062 14.125H9.45312L15.625 23.9219ZM21.1719 32.3594L21.8281 31.2969L27.3125 40H25.9844L21.1719 32.3594ZM16.9531 21.7969L16.2969 22.8438L10.7969 14.125H12.125L16.9531 21.7969ZM22.5156 30.2344L23.1719 29.1719L29.9844 40H28.6562L22.5156 30.2344ZM18.2812 19.6875L17.625 20.75L13.4531 14.125H14.7812L18.2812 19.6875ZM23.8281 28.125L24.4844 27.0625L32.6406 40H31.3125L23.8281 28.125ZM30.5312 14.125H31.8594L15.5781 40H14.25L30.5312 14.125ZM27.8906 14.125H29.2031L12.9219 40H11.5938L27.8906 14.125ZM25.2188 14.125H26.5469L10.25 40H8.92188L25.2188 14.125ZM22.5625 14.125H23.8906L7.59375 40H6.26562L22.5625 14.125Z" fill="white"/>
</g>
<defs>
<filter id="filter0_d_8_4" x="-1" y="3" width="50.1245" height="50.1245" filterUnits="userSpaceOnUse" color-interpolation-filters="sRGB">
<feFlood flood-opacity="0" result="BackgroundImageFix"/>
<feColorMatrix in="SourceAlpha" type="matrix" values="0 0 0 0 0 0 0 0 0 0 0 0 0 0 0 0 0 0 127 0" result="hardAlpha"/>
<feOffset dy="4"/>
<feGaussianBlur stdDeviation="2"/>
<feComposite in2="hardAlpha" operator="out"/>
<feColorMatrix type="matrix" values="0 0 0 0 0 0 0 0 0 0 0 0 0 0 0 0 0 0 0.25 0"/>
<feBlend mode="normal" in2="BackgroundImageFix" result="effect1_dropShadow_8_4"/>
<feBlend mode="normal" in="SourceGraphic" in2="effect1_dropShadow_8_4" result="shape"/>
</filter>
<clipPath id="clip0_8_4">
<rect width="48" height="48" fill="white"/>
</clipPath>
</defs>
</svg>
